<?xml version="1.0" encoding="utf-8"?>
<!-- Generator: Adobe Illustrator 16.0.0, SVG Export Plug-In . SVG Version: 6.00 Build 0)  -->
<!DOCTYPE svg PUBLIC "-//W3C//DTD SVG 1.1//EN" "http://www.w3.org/Graphics/SVG/1.1/DTD/svg11.dtd">
<svg version="1.1" id="Layer_1" xmlns="http://www.w3.org/2000/svg" xmlns:xlink="http://www.w3.org/1999/xlink" x="0px" y="0px"
	 width="850.143px" height="182.557px" viewBox="0 0 850.143 182.557" enable-background="new 0 0 850.143 182.557"
	 xml:space="preserve">
<g>
	<path fill="#FFFFFF" d="M14.99,26.767h29.623l32.835,52.822l32.835-52.822h29.624v124.917h-27.125V70.131l-35.155,53.357h-0.714
		L42.115,70.666v81.018H14.99V26.767z"/>
	<path fill="#FFFFFF" d="M194.157,153.469c-4.522,0-8.775-0.625-12.759-1.873c-3.987-1.25-7.467-3.123-10.439-5.623
		c-2.976-2.498-5.326-5.559-7.049-9.189c-1.726-3.627-2.587-7.82-2.587-12.58v-0.357c0-5.234,0.951-9.754,2.855-13.563
		c1.901-3.806,4.55-6.959,7.941-9.458c3.391-2.498,7.434-4.372,12.135-5.621c4.698-1.249,9.904-1.874,15.615-1.874
		c4.877,0,9.129,0.357,12.759,1.071c3.628,0.714,7.166,1.667,10.618,2.855V95.65c0-5.711-1.726-10.052-5.175-13.027
		c-3.452-2.972-8.565-4.461-15.347-4.461c-5.237,0-9.846,0.446-13.83,1.338c-3.987,0.893-8.181,2.172-12.581,3.837l-6.781-20.701
		c5.233-2.258,10.707-4.104,16.417-5.532c5.71-1.427,12.609-2.141,20.701-2.141c7.495,0,13.889,0.923,19.184,2.766
		c5.292,1.846,9.665,4.492,13.117,7.941c3.569,3.569,6.185,7.941,7.852,13.116c1.665,5.175,2.499,10.975,2.499,17.399v55.499
		h-26.232v-10.35c-3.332,3.689-7.317,6.633-11.957,8.834C206.47,152.367,200.818,153.469,194.157,153.469z M202.366,134.73
		c6.424,0,11.569-1.545,15.436-4.639c3.865-3.094,5.8-7.139,5.8-12.135v-4.818c-2.381-1.071-5.027-1.933-7.941-2.587
		c-2.917-0.653-6.04-0.982-9.369-0.982c-5.831,0-10.412,1.132-13.741,3.391c-3.332,2.262-4.997,5.532-4.997,9.816v0.355
		c0,3.689,1.366,6.545,4.104,8.566C194.394,133.721,197.963,134.73,202.366,134.73z"/>
	<path fill="#FFFFFF" d="M272.675,56.033H299.8v19.273c2.735-6.542,6.483-11.778,11.243-15.704
		c4.757-3.926,11.181-5.71,19.273-5.354v28.374h-1.428c-9.042,0-16.15,2.738-21.325,8.209c-5.175,5.474-7.763,13.98-7.763,25.519
		v35.333h-27.125V56.033z"/>
	<path fill="#FFFFFF" d="M374.394,153.469c-4.522,0-8.775-0.625-12.759-1.873c-3.987-1.25-7.467-3.123-10.439-5.623
		c-2.976-2.498-5.326-5.559-7.049-9.189c-1.726-3.627-2.587-7.82-2.587-12.58v-0.357c0-5.234,0.951-9.754,2.855-13.563
		c1.901-3.806,4.55-6.959,7.941-9.458c3.391-2.498,7.434-4.372,12.135-5.621c4.698-1.249,9.904-1.874,15.615-1.874
		c4.877,0,9.129,0.357,12.759,1.071c3.628,0.714,7.166,1.667,10.618,2.855V95.65c0-5.711-1.726-10.052-5.175-13.027
		c-3.452-2.972-8.565-4.461-15.347-4.461c-5.237,0-9.846,0.446-13.83,1.338c-3.987,0.893-8.181,2.172-12.581,3.837l-6.781-20.701
		c5.233-2.258,10.707-4.104,16.417-5.532c5.71-1.427,12.609-2.141,20.701-2.141c7.495,0,13.889,0.923,19.184,2.766
		c5.292,1.846,9.665,4.492,13.117,7.941c3.569,3.569,6.185,7.941,7.852,13.116c1.665,5.175,2.499,10.975,2.499,17.399v55.499
		h-26.232v-10.35c-3.332,3.689-7.317,6.633-11.957,8.834C386.707,152.367,381.055,153.469,374.394,153.469z M382.603,134.73
		c6.424,0,11.569-1.545,15.436-4.639c3.865-3.094,5.8-7.139,5.8-12.135v-4.818c-2.381-1.071-5.027-1.933-7.941-2.587
		c-2.917-0.653-6.04-0.982-9.369-0.982c-5.831,0-10.412,1.132-13.741,3.391c-3.332,2.262-4.997,5.532-4.997,9.816v0.355
		c0,3.689,1.366,6.545,4.104,8.566C374.63,133.721,378.2,134.73,382.603,134.73z"/>
	<path fill="#FFFFFF" d="M485.213,153.291c-4.166,0-7.941-0.447-11.332-1.34s-6.307-2.467-8.744-4.729
		c-2.439-2.258-4.344-5.203-5.71-8.834c-1.369-3.627-2.052-8.236-2.052-13.83V79.232h-11.421V56.033h11.421V31.585h27.124v24.448
		h22.486v23.199h-22.486v41.01c0,6.211,2.914,9.314,8.744,9.314c4.758,0,9.219-1.189,13.385-3.57v21.771
		c-2.855,1.668-6.008,3.006-9.457,4.016C493.717,152.783,489.732,153.291,485.213,153.291z"/>
	<path fill="#FFFFFF" d="M573.903,153.826c-7.378,0-14.218-1.281-20.522-3.838c-6.308-2.557-11.75-6.066-16.328-10.527
		c-4.582-4.463-8.182-9.695-10.797-15.705c-2.618-6.006-3.926-12.461-3.926-19.362v-0.357c0-6.898,1.308-13.354,3.926-19.362
		c2.615-6.006,6.246-11.271,10.886-15.793c4.64-4.52,10.11-8.089,16.418-10.708c6.305-2.615,13.205-3.926,20.7-3.926
		c7.375,0,14.215,1.28,20.522,3.837c6.305,2.56,11.747,6.067,16.328,10.528c4.579,4.461,8.179,9.698,10.797,15.704
		c2.615,6.009,3.926,12.464,3.926,19.362v0.357c0,6.901-1.311,13.356-3.926,19.361c-2.618,6.01-6.246,11.273-10.886,15.793
		c-4.64,4.523-10.113,8.092-16.418,10.709C588.297,152.516,581.398,153.826,573.903,153.826z M574.26,130.447
		c3.926,0,7.406-0.682,10.439-2.051c3.034-1.367,5.621-3.24,7.763-5.621c2.142-2.379,3.775-5.145,4.908-8.299
		c1.129-3.151,1.695-6.514,1.695-10.083v-0.357c0-3.569-0.597-6.929-1.785-10.083c-1.19-3.151-2.916-5.948-5.175-8.388
		c-2.262-2.437-4.938-4.372-8.03-5.8c-3.096-1.427-6.486-2.141-10.172-2.141c-3.926,0-7.406,0.686-10.439,2.052
		c-3.034,1.369-5.622,3.243-7.763,5.621c-2.142,2.381-3.778,5.147-4.908,8.298c-1.132,3.153-1.695,6.513-1.695,10.083v0.357
		c0,3.569,0.595,6.932,1.785,10.083c1.188,3.154,2.913,5.951,5.175,8.388c2.259,2.439,4.907,4.371,7.941,5.799
		C567.032,129.734,570.451,130.447,574.26,130.447z"/>
	<path fill="#FFFFFF" d="M645.46,56.033h27.125v13.674c1.545-2.036,3.24-3.984,5.086-5.842c1.843-1.857,3.896-3.502,6.156-4.941
		c2.259-1.438,4.757-2.576,7.495-3.416c2.735-0.839,5.828-1.26,9.28-1.26c10.35,0,18.35,3.153,24.002,9.458
		c5.648,6.307,8.477,14.99,8.477,26.054v61.923h-27.125V98.458c0-6.408-1.428-11.245-4.283-14.508
		c-2.855-3.262-6.901-4.896-12.135-4.896c-5.236,0-9.369,1.634-12.402,4.896c-3.034,3.263-4.551,8.1-4.551,14.508v53.226H645.46
		V56.033z"/>
	<path fill="#FFFFFF" d="M783.759,153.469c-4.522,0-8.774-0.625-12.76-1.873c-3.987-1.25-7.467-3.123-10.439-5.623
		c-2.975-2.498-5.325-5.559-7.049-9.189c-1.726-3.627-2.587-7.82-2.587-12.58v-0.357c0-5.234,0.95-9.754,2.854-13.563
		c1.902-3.806,4.551-6.959,7.941-9.458c3.391-2.498,7.434-4.372,12.135-5.621c4.698-1.249,9.904-1.874,15.615-1.874
		c4.876,0,9.129,0.357,12.759,1.071c3.628,0.714,7.166,1.667,10.618,2.855V95.65c0-5.711-1.726-10.052-5.175-13.027
		c-3.452-2.972-8.566-4.461-15.348-4.461c-5.236,0-9.846,0.446-13.83,1.338c-3.987,0.893-8.181,2.172-12.581,3.837l-6.781-20.701
		c5.234-2.258,10.708-4.104,16.418-5.532c5.711-1.427,12.609-2.141,20.701-2.141c7.494,0,13.889,0.923,19.184,2.766
		c5.292,1.846,9.664,4.492,13.116,7.941c3.569,3.569,6.185,7.941,7.852,13.116c1.665,5.175,2.499,10.975,2.499,17.399v55.499
		h-26.233v-10.35c-3.332,3.689-7.316,6.633-11.956,8.834C796.072,152.367,790.42,153.469,783.759,153.469z M791.968,134.73
		c6.424,0,11.568-1.545,15.437-4.639c3.864-3.094,5.8-7.139,5.8-12.135v-4.818c-2.382-1.071-5.028-1.933-7.941-2.587
		c-2.917-0.653-6.04-0.982-9.369-0.982c-5.83,0-10.411,1.132-13.741,3.391c-3.332,2.262-4.996,5.532-4.996,9.816v0.355
		c0,3.689,1.366,6.545,4.104,8.566C783.996,133.721,787.564,134.73,791.968,134.73z"/>
</g>
</svg>
