<?xml version="1.0" encoding="utf-8"?>
<!-- Generator: Adobe Illustrator 16.0.0, SVG Export Plug-In . SVG Version: 6.00 Build 0)  -->
<!DOCTYPE svg PUBLIC "-//W3C//DTD SVG 1.1//EN" "http://www.w3.org/Graphics/SVG/1.1/DTD/svg11.dtd">
<svg version="1.1" id="Layer_1" xmlns="http://www.w3.org/2000/svg" xmlns:xlink="http://www.w3.org/1999/xlink" x="0px" y="0px"
	 width="397.182px" height="406.479px" viewBox="223.83 119.923 397.182 406.479"
	 enable-background="new 223.83 119.923 397.182 406.479" xml:space="preserve">
<g id="Layer_1_1_">
	<circle fill="#255D73" cx="424.715" cy="322.641" r="192.342"/>
	<g>
		<g>
			<g>
				<polygon fill="#4F8FA0" points="230.842,293.015 230.989,348.043 230.173,336.848 				"/>
				<polygon fill="#92AAC4" points="519.294,152.385 457.864,131.525 484.453,139.698 				"/>
				<polygon fill="#4390A0" points="457.864,131.525 385.814,132.018 425.185,130.548 				"/>
				<polygon fill="#296075" points="583.921,436.992 541.546,481.354 572.856,446.412 				"/>
				<polygon fill="#2C687C" points="572.856,446.412 606.697,396.881 583.921,436.992 				"/>
				<polygon fill="#275F73" points="358.152,507.701 304.637,476.879 322.307,485.584 				"/>
				<polygon fill="#275D71" points="269.606,441.469 322.307,485.584 304.637,476.879 				"/>
				<polygon fill="#2F7E92" points="616.236,282.604 621.012,340.16 615.157,295.008 				"/>
				<polygon fill="#3E8699" points="615.157,295.008 598.778,234.255 616.236,282.604 				"/>
				<polygon fill="#286072" points="384.243,509.248 420.933,519.594 358.152,507.701 				"/>
				<polygon fill="#285F72" points="322.307,485.584 384.243,509.248 358.152,507.701 				"/>
				<polygon fill="#286073" points="420.933,519.594 384.243,509.248 451.263,510.668 				"/>
				<polygon fill="#296176" points="451.263,510.668 484.89,510.373 420.933,519.594 				"/>
				<polygon fill="#36788C" points="613.246,351.604 621.012,340.16 606.697,396.881 				"/>
				<polygon fill="#3A8193" points="613.246,351.604 615.157,295.008 621.012,340.16 				"/>
				<polygon fill="#286174" points="541.546,481.354 484.89,510.373 514.961,489.34 				"/>
				<polygon fill="#286176" points="514.961,489.34 572.856,446.412 541.546,481.354 				"/>
				<polygon fill="#296174" points="451.263,510.668 514.961,489.34 484.89,510.373 				"/>
				<polygon fill="#367A8B" points="284.238,188.134 285.072,190.513 249.362,233.991 				"/>
				<polygon fill="#3C8596" points="285.072,190.513 284.238,188.134 326.55,153.398 				"/>
				<polygon fill="#428FA0" points="557.054,189.833 566.094,187.381 598.778,234.255 				"/>
				<polygon fill="#4390A2" points="566.094,187.381 557.054,189.833 519.294,152.385 				"/>
				<polygon fill="#245B70" points="269.606,441.469 240.468,392.258 249.526,390.406 				"/>
				<polygon fill="#235A70" points="230.989,348.043 249.526,390.406 240.468,392.258 				"/>
				<polygon fill="#317184" points="249.362,233.991 253.083,253.514 230.842,293.015 				"/>
				<polygon fill="#367A8C" points="253.083,253.514 249.362,233.991 285.072,190.513 				"/>
				<polygon fill="#337487" points="606.697,396.881 572.856,446.412 588.913,394.641 				"/>
				<polygon fill="#377A8D" points="588.913,394.641 613.246,351.604 606.697,396.881 				"/>
				<polygon fill="#3E899A" points="326.55,153.398 385.814,132.018 343.656,158.845 				"/>
				<polygon fill="#3D8597" points="326.55,153.398 343.656,158.845 285.072,190.513 				"/>
				<polygon fill="#2B677B" points="243.268,322.72 249.526,390.406 230.989,348.043 				"/>
				<polygon fill="#2D6A7D" points="230.842,293.015 243.268,322.72 230.989,348.043 				"/>
				<polygon fill="#317284" points="243.268,322.72 230.842,293.015 253.083,253.514 				"/>
				<polygon fill="#4594A5" points="493.508,158.119 519.294,152.385 557.054,189.833 				"/>
				<polygon fill="#4492A3" points="457.864,131.525 519.294,152.385 493.508,158.119 				"/>
				<polygon fill="#265E73" points="322.307,485.584 269.606,441.469 292.948,438.359 				"/>
				<polygon fill="#255D73" points="249.526,390.406 293.493,438.359 269.606,441.469 				"/>
				<polygon fill="#418D9E" points="585.935,254.252 598.778,234.255 615.157,295.008 				"/>
				<polygon fill="#4390A2" points="598.778,234.255 585.935,254.252 557.054,189.833 				"/>
				<polygon fill="#286174" points="414.859,493.734 451.263,510.668 384.243,509.248 				"/>
				<polygon fill="#4694A4" points="493.508,158.119 417.606,146.845 457.864,131.525 				"/>
				<polygon fill="#428F9F" points="417.606,146.845 343.656,158.845 385.814,132.018 				"/>
				<polygon fill="#428FA1" points="385.814,132.018 457.864,131.525 417.606,146.845 				"/>
				<polygon fill="#3B8395" points="594.059,325.319 613.246,351.604 588.913,394.641 				"/>
				<polygon fill="#3E8699" points="594.059,325.319 615.157,295.008 613.246,351.604 				"/>
				<polygon fill="#408B9E" points="615.157,295.008 594.059,325.319 585.935,254.252 				"/>
				<polygon fill="#286074" points="384.243,509.248 322.307,485.584 355.114,475.76 				"/>
				<polygon fill="#286075" points="355.114,475.76 414.859,493.734 384.243,509.248 				"/>
				<polygon fill="#275F74" points="292.948,438.359 355.114,475.76 322.307,485.584 				"/>
				<polygon fill="#2E6B7F" points="572.856,446.412 514.961,489.34 539.507,442.307 				"/>
				<polygon fill="#347588" points="539.507,442.307 588.913,394.641 572.856,446.412 				"/>
				<polygon fill="#286175" points="514.961,489.34 451.263,510.668 474.143,477.986 				"/>
				<polygon fill="#2E6C80" points="474.143,477.986 539.507,442.307 514.961,489.34 				"/>
				<polygon fill="#296176" points="414.859,493.734 474.143,477.986 451.263,510.668 				"/>
				<polygon fill="#3B8194" points="285.072,190.513 306.076,212.935 253.083,253.514 				"/>
				<polygon fill="#3E8798" points="306.076,212.935 285.072,190.513 343.656,158.845 				"/>
				<polygon fill="#2E6D81" points="249.526,390.406 243.268,322.72 277.613,368.693 				"/>
				<polygon fill="#2C687D" points="277.613,368.693 293.493,438.359 249.526,390.406 				"/>
				<polygon fill="#4895A6" points="525.943,212.755 557.054,189.833 585.935,254.252 				"/>
				<polygon fill="#4C97A8" points="557.054,189.833 525.943,212.755 493.508,158.119 				"/>
				<polygon fill="#35788B" points="281.98,287.859 277.613,368.693 243.268,322.72 				"/>
				<polygon fill="#367A8D" points="253.083,253.514 281.98,287.859 243.268,322.72 				"/>
				<polygon fill="#3A8294" points="281.98,287.859 253.083,253.514 306.076,212.935 				"/>
				<polygon fill="#397E91" points="551.937,371.664 588.913,394.641 539.507,442.307 				"/>
				<polygon fill="#3C8497" points="588.913,394.641 551.937,371.664 594.059,325.319 				"/>
				<polygon fill="#4891A3" points="343.656,158.845 417.606,146.845 375.225,187.097 				"/>
				<polygon fill="#3E8799" points="343.656,158.845 375.225,187.097 306.076,212.935 				"/>
				<polygon fill="#306D81" points="411.98,452.969 474.143,477.986 414.859,493.734 				"/>
				<polygon fill="#2D6A7D" points="411.98,452.969 414.859,493.734 355.114,475.76 				"/>
				<polygon fill="#609FAE" points="453.508,186.883 493.508,158.119 525.943,212.755 				"/>
				<polygon fill="#5B9BAA" points="453.508,186.883 375.225,187.097 417.606,146.845 				"/>
				<polygon fill="#5B9CAA" points="417.606,146.845 493.508,158.119 453.508,186.883 				"/>
				<polygon fill="#306F83" points="292.948,438.359 277.613,368.693 341.312,418.576 				"/>
				<polygon fill="#2D697E" points="341.312,418.576 355.114,475.76 292.948,438.359 				"/>
				<polygon fill="#306E83" points="355.114,475.76 341.312,418.576 411.98,452.969 				"/>
				<polygon fill="#418C9D" points="547.338,289.128 594.059,325.319 551.937,371.664 				"/>
				<polygon fill="#438FA0" points="547.338,289.128 585.935,254.252 594.059,325.319 				"/>
				<polygon fill="#4D96A6" points="585.935,254.252 547.338,289.128 525.943,212.755 				"/>
				<polygon fill="#337588" points="474.143,477.986 411.98,452.969 482.727,420.625 				"/>
				<polygon fill="#35768A" points="482.727,420.625 539.507,442.307 474.143,477.986 				"/>
				<polygon fill="#397F92" points="539.507,442.307 482.727,420.625 551.937,371.664 				"/>
				<polygon fill="#408799" points="306.076,212.935 345.669,253.192 281.98,287.859 				"/>
				<polygon fill="#4990A0" points="345.669,253.192 306.076,212.935 375.225,187.097 				"/>
				<polygon fill="#5F9AA9" points="375.225,187.097 453.508,186.883 411.704,229.731 				"/>
				<polygon fill="#619BA9" points="375.225,187.097 411.704,229.731 345.669,253.192 				"/>
				<polygon fill="#387D90" points="277.613,368.693 281.98,287.859 337.232,333.752 				"/>
				<polygon fill="#367A8D" points="337.232,333.752 341.312,418.576 277.613,368.693 				"/>
				<polygon fill="#3F8698" points="345.669,253.192 337.232,333.752 281.98,287.859 				"/>
				<polygon fill="#69A2B0" points="478.308,253.481 525.943,212.755 547.338,289.128 				"/>
				<polygon fill="#7CADB7" points="525.943,212.755 478.308,253.481 453.508,186.883 				"/>
				<polygon fill="#60A0AE" points="411.704,229.731 453.508,186.883 478.308,253.481 				"/>
				<polygon fill="#397D90" points="409.9,381.912 482.727,420.625 411.98,452.969 				"/>
				<polygon fill="#397E92" points="341.312,418.576 337.232,333.752 409.9,381.912 				"/>
				<polygon fill="#367A8C" points="409.9,381.912 411.98,452.969 341.312,418.576 				"/>
				<polygon fill="#408598" points="482.727,420.625 409.9,381.912 484.636,334.959 				"/>
				<polygon fill="#3F8699" points="484.636,334.959 551.937,371.664 482.727,420.625 				"/>
				<polygon fill="#659DAC" points="551.937,371.664 484.636,334.959 547.338,289.128 				"/>
				<polygon fill="#649DAB" points="478.308,253.481 547.338,289.128 484.636,334.959 				"/>
				<polygon fill="#50909F" points="409.937,297.575 484.636,334.959 409.9,381.912 				"/>
				<polygon fill="#71A2AF" points="484.636,334.959 409.937,297.575 478.308,253.481 				"/>
				<polygon fill="#83AEB8" points="411.704,229.731 478.308,253.481 409.937,297.575 				"/>
				<polygon fill="#4F8FA0" points="337.232,333.752 345.669,253.192 409.937,297.575 				"/>
				<polygon fill="#47899B" points="409.937,297.575 409.9,381.912 337.232,333.752 				"/>
				<polygon fill="#679DAB" points="411.704,229.731 409.937,297.575 345.669,253.192 				"/>
			</g>
		</g>
	</g>
	<path fill="#73A533" d="M439.859,212.734"/>
</g>
<g id="PERSPECTIVA">
	<path fill="#372420" d="M285.072,176.25l-1.456,2.042l3.717,8.805c0,0,31.375-17.264,31.604-17.514s0-4.803,0-4.803L285.072,176.25
		z"/>
	<polygon fill="#52352C" points="318.938,164.781 318.938,169.583 329.047,168.747 329.753,159.983 	"/>
	<path fill="#826056" d="M343.656,166.333c0.519,0.188,1.224,42.986,1.224,42.986s9.559-19.168,9.375-19.67
		s-7.31-24.048-7.31-24.048L343.656,166.333z"/>
	<path fill="#52352C" d="M350.995,168.98c-0.645,0.579-6.839,6.959-6.839,6.959l-15.109-7.192l-1.666-8.282L350.995,168.98z"/>
	<polyline fill="#3E2A22" points="425.739,261.564 421.334,268.165 404.762,273.981 397.048,262.631 424.524,261.088 	"/>
	<polygon fill="#52352C" points="332.294,248 338.593,271.918 340.069,266.032 340.136,247.565 	"/>
	<polygon fill="#52352C" points="393.357,274.366 404.762,273.981 404.762,262.964 389.767,258.932 	"/>
	<polyline fill="#382420" points="393.22,261.564 396,275.75 389.767,281.75 381.176,265.046 393.146,259.742 	"/>
	<path fill="#52352C" d="M391.124,279.554c-0.102,0.988-6.123,24.188-6.123,24.188l-12.645-14.613l8.274-20.963l4.762-5.534
		L391.124,279.554z"/>
	<path fill="#62453D" d="M445.826,239.297c0.815,0.422,7.221,1.776,7.095,2.111s-3.771,9.533-3.771,9.533l-6.376-5.601
		L445.826,239.297z"/>
	<polygon fill="#3E2A22" points="459.96,225.278 452.921,241.408 445.006,240.633 	"/>
	<polygon fill="#6B4A40" points="430.833,276.584 435.489,277.567 435.489,259.742 429.76,252.367 	"/>
	<path fill="#3E2A22" d="M429.76,256.597l5.729,8.45c0,0,13.66-13.832,13.66-14.105s-4.762-7.35-4.762-7.35L429.76,256.597z"/>
	<path fill="#3E2A22" d="M418.753,262.106l4.89,11.875c0,0,2.192-7.166,2.098-7.949
		C425.645,265.249,418.753,262.106,418.753,262.106z"/>
	<polygon fill="#3E2A22" points="426.604,275.053 428.132,283.186 435.489,277.567 	"/>
	<path fill="#3E2A22" d="M404.33,314.431c0.503-0.597,9.179-10.373,9.179-10.373l-9.179-6.883c0,0-7.635,10.325-7.066,10.825
		c0.569,0.5,6.402,6.431,6.402,6.431"/>
	<path fill="#826056" d="M409.079,292.143c0,0,4.939,11.473,4.43,11.915c-0.509,0.442-11.066-2.352-11.066-2.352
		S408.816,291.527,409.079,292.143z"/>
	<path fill="#3E2A22" d="M374.333,309.402l1.734,2.189l13.699,5.271c0,0,3.067-8.098,2.067-7.98S374.333,309.402,374.333,309.402z"
		/>
	<polygon fill="#3E2A22" points="416.271,312.782 416.583,334.696 407.995,322.409 	"/>
	<path fill="#3E2A22" d="M411.916,184.79c0.01,2.207-0.522,60.329-0.522,60.329s44.555-22.178,44.163-22.667
		c-0.392-0.489-4.067-27.373-5.196-28.227S411.916,184.79,411.916,184.79z"/>
	<path fill="#3E2A22" d="M466.838,152.917c0,0,0.813,5.785,0,6.343c-0.813,0.558-23.57,6.342-23.57,6.342
		s14.079-15.377,14.598-15.207C458.383,150.565,466.838,152.917,466.838,152.917z"/>
	<path fill="#3E2A22" d="M458.921,182.137l1.352,16.174c0,0-8.692,1.697-8.729,0.933
		C451.506,198.48,458.921,182.137,458.921,182.137z"/>
	<path fill="#826056" d="M444.389,165.191c0.721,0.458,4.762,16.831,4.762,16.831l-13.288-4.847L444.389,165.191z"/>
	<path fill="#826056" d="M458.137,229.455l24.42-9.003l2.83-7.517c0,0-9.904-1.608-10.21-1.318
		c-0.305,0.29-17.191,17.188-17.191,17.188"/>
	<path fill="#3E2A22" d="M491.06,201.099c-0.452,1.225,0,11.045,0,11.045h-7.084L491.06,201.099z"/>
	<path fill="#3E2A22" d="M483.86,204.59l2.818-8.847c0,0-6.748-5.26-7.166-5.107c-0.418,0.153-12.666,14.199-12.676,15.12
		s8.339,5.86,8.339,5.86l8.492-6.563"/>
	<polygon fill="#3E2A22" points="485.387,199.442 504.673,199.511 491.804,189.833 483.669,193.61 	"/>
	<polygon fill="#3E2A22" points="515.634,192.619 515.634,196.812 505.097,199.244 510.27,189.833 	"/>
	<polyline fill="#826056" points="465.666,159.26 465.517,148.43 472.378,156.512 466.838,159.26 	"/>
	<path fill="#826056" d="M451.988,138.585c-0.354,0.14,0.494,7.844,0.494,7.844s-17.563-1.194-16.993-1.643
		c0.568-0.449,16.455-6.689,16.455-6.689l-39.607-5.043l-0.556-0.07l0.146,2.485l7.215,8.871l7.461-5.754"/>
	<path fill="#372420" d="M389.767,146.859c0,0,1.919,26.66,3.59,26.748s34.116-8.005,34.116-8.005s-16.723-23.529-17.536-23.121
		C409.124,142.889,389.767,146.859,389.767,146.859z"/>
	<polygon fill="#826056" points="389.767,317.125 408.169,331.574 409.76,320.355 	"/>
	<polygon fill="#6D554B" points="427.004,338.363 425.363,358.955 437.919,358.955 430.711,338.697 	"/>
	<path fill="#3E2A22" d="M418.851,338.363c0,0,5.172-1.332,5.27-1.564c0.098-0.231,0-3.172,0-3.172L418.851,338.363z"/>
	<path fill="#826056" d="M427.004,333.938c0.011,0.423,0,4.427,0,4.427l6.328,15.333v-11.632L427.004,333.938z"/>
	<polyline fill="#6D554B" points="428.04,336.214 427.004,338.363 424.119,336.799 422.48,333.307 428.246,335.995 	"/>
	<polygon fill="#6D554B" points="416.583,290.013 421.96,291.517 422.248,287.859 	"/>
	<polygon fill="#6D554B" points="421.96,288.221 421.96,291.517 434.304,296.605 	"/>
	<polyline fill="#6D554B" points="434.304,296.605 443.268,298.111 443.668,296.633 	"/>
	<path fill="#6D554B" d="M445.346,296.823c0,0-1.885,3.255-1.678,3.591s5.987,4.684,5.987,4.684l1.113-4.057L445.346,296.823z"/>
	<path fill="#3E2A22" d="M449.655,305.098l8.329,0.277v-2.869c0,0-6.279-1.959-6.319-1.545"/>
	<polygon fill="#3E2A22" points="423.643,273.981 428.132,283.186 428.04,275.573 	"/>
	<polygon fill="#3E2A22" points="448.389,324.85 449.655,327.466 445.561,329.047 444.891,325.822 	"/>
	<path fill="#3E2A22" d="M454.217,325.182l3.769,3.865c0,0-6.022,0.832-5.808,0.282S454.217,325.182,454.217,325.182z"/>
	<path fill="#3E2A22" d="M505.044,358.955l-1.537,8.191c0,0-4.394-1.602-4.286-1.88c0.108-0.277,5.609-6.313,5.609-6.313"/>
	<polygon fill="#3E2A22" points="535.715,422.945 537.039,408.763 534.57,401.304 	"/>
	<polyline fill="#6D554B" points="545.375,391.721 537.039,408.763 534.57,406.639 545.227,391.721 	"/>
	<path fill="#593D33" d="M448.383,421.553l-3.882,12.215l4.768,17.107c0,0,6.721-2.625,6.727-3s1.117-23.949,1.117-23.949
		L448.383,421.553z"/>
	<path fill="#432F28" d="M444.501,433.768l8.886,68.784c0,0,1.488-53.681,1.488-53.929S444.501,433.768,444.501,433.768z"/>
	<path fill="#432F28" d="M417.412,381.63c0.377,0.667,11.896,34.517,11.896,34.517l10.24-3.502L417.412,381.63z"/>
	<polyline fill="#6D554B" points="438.75,410.887 429.308,416.146 444.501,433.768 455.994,427.375 	"/>
	<polygon fill="#432F28" points="455.994,514.539 477.382,519.44 472.998,506.167 	"/>
	<path fill="#6D554B" d="M453.387,502.552c0,0,2.436,11.654,2.607,11.987s4.471-1.067,4.471-1.067l2.967-9.305l-9.866-1.966"/>
	<polyline fill="#432F28" points="433.407,352.207 420.117,361.334 420.205,366.364 	"/>
	<polygon fill="#7C5D53" points="415.698,364.188 417.412,381.63 429.888,375.501 423.821,365.18 	"/>
	<path fill="#6D554B" d="M422.48,367.147c0,0-7.252-3.108-6.783-2.962c0.469,0.147,4.419-2.853,4.419-2.853l5.246,5.813
		L422.48,367.147L422.48,367.147z"/>
	<path fill="#432F28" d="M501.862,480.504l-8.1,4.374c0,0-6.064-7.755-6.198-6.892c-0.135,0.862,14.009,2.518,14.009,2.518"/>
	<path fill="#432F28" d="M484.32,501.291c-0.494,0.042-6.259,2.619-6.259,2.619s-1.225-4.571-1.172-4.571
		C476.943,499.339,484.32,501.291,484.32,501.291z"/>
	<path fill="#432F28" d="M512.458,449.394l16.867-9.988c0,0-2.281-5-2.563-5.093c-0.28-0.094-12.314,2.748-12.314,2.681
		C514.448,436.925,512.458,449.394,512.458,449.394z"/>
	<polygon fill="#7C5D53" points="488.225,141.248 486.68,146.859 483.669,146.7 483.843,142.59 	"/>
	<path fill="#3E2A22" d="M473.583,150.976c0.535-0.177,13.097-4.117,13.097-4.117s-2.759-3.428-3.011-3.394
		c-0.252,0.034-12.328,4.368-12.582,4.618S473.583,150.976,473.583,150.976z"/>
	<polygon fill="#3E2A22" points="480.286,156.994 479.917,157.998 466.417,159.417 468.947,155.751 	"/>
	<path fill="#3E2A22" d="M474.325,170.983c0.105,0.43,0.458,10.184,0.607,10.184c0.15,0,5.473-0.917,5.354-1.833
		S474.325,170.983,474.325,170.983z"/>
	<path fill="#3E2A22" d="M496.785,165.923l1.799,6.994c0,0-6.613,0.668-6.417,0s4.417-6.833,4.417-6.833"/>
	<path fill="#3E2A22" d="M497.746,212.208c0,0-0.329,2.391-0.746,2.425c-0.417,0.034-14.464,5.549-14.464,5.549l6.464-8.349"/>
	<path fill="#3E2A22" d="M432.295,305.375c0,0,1.839-0.027,2.009,0s1.325-0.817,1.325-0.817"/>
	<path fill="#3E2A22" d="M460.271,303.987c0,0,0.408,0.934,0.539,0.956c0.132,0.021,2.268,0.024,2.485,0.023
		s1.563-0.909,1.563-0.909"/>
	<polyline fill="#3E2A22" points="469.309,302.54 468.572,303.987 472.007,304.802 	"/>
	<path fill="#52352C" d="M347.783,269.976c0,0,0.033-0.173,0.092-0.479c0.461-2.407,2.487-13.063,2.245-13.231
		c-0.273-0.189-8.337,0-8.337,0s-1.894,13.524-1.714,13.71"/>
	<polygon fill="#3E2A22" points="348.255,286.498 357.311,288.221 346.784,269.455 341.783,268.165 	"/>
	<path fill="#432F28" d="M418.156,377.173c-0.718,0.249-0.669,13.561-0.669,13.561l11.819,25.413"/>
</g>
<g id="SOMBRA_1_" opacity="0.15">
	<path d="M506.816,167.904c0.328,1.478,25.304,28.202,25.304,28.202l-9.476,6.85l-20.729,3.095l0.238,9.803l-9.969,10.302
		l-27.738,16.865l-19.533,17.496l-6.316,23.271l-8.402,2.068l-16.659-6.875l-13.065,8.307l1.482,12.501l-14.629,6.991
		l-23.313-32.457l40.973-61.433l53.313-6.84L506.816,167.904z"/>
	<polygon points="486.706,146.287 486.631,152.965 473.023,153.953 480.764,166.292 451.568,189.261 427.499,165.03 
		451.568,149.642 483.695,142.894 	"/>
	<polygon points="287.359,186.525 313.852,197.74 326.576,177.72 354.34,177.72 355.141,149.824 313.852,157.012 	"/>
	<path d="M409.786,300.675c0,0,14.544,8.846,14.589,10.41c0.045,1.563-0.229,22.813-0.229,22.813l-7.536,0.229l-10.08-14.867
		l-6.74-13.415L409.786,300.675z"/>
	<polygon points="470.234,326.455 499.245,338.125 506.456,368.319 472.201,359.405 	"/>
	<path d="M544.301,380.28l15.56,35.291l-9.726,15.937l-6.199,28.054c0,0-23.569,6.854-24.121,8.606
		c-0.553,1.752-17.656,20.602-17.656,20.602l-11.278,12.432l-10.245,8.604c0,0-25.273-25.758-25.187-26.598
		c0.09-0.843,56.446-86.334,57.401-87.164s31.086-18.819,31.086-18.819"/>
	<polygon points="376.094,311.02 415.725,343.243 429.334,336.452 420.143,334.397 412.085,331.571 385.982,308.309 	"/>
	<polyline points="416.609,289.442 435.516,298.278 443.294,297.539 423.395,289.213 416.609,289.213 	"/>
	<path d="M449.682,304.526c0.51,0.02,10.613,1.527,10.613,1.527l-2.777-3.743L449.682,304.526z"/>
	<polygon points="460.837,304.371 466.167,305.134 462.592,302.437 	"/>
	<polygon points="468.598,303.415 473.832,304.803 476.241,303.099 	"/>
</g>
<g id="AMERICA">
	<g>
		<g>
			<g>
				<polygon fill="#CFD765" points="466.977,154.525 470.061,134.648 469.579,144.786 				"/>
				<polygon fill="#CFD765" points="470.061,134.648 466.977,154.525 466.838,130.655 				"/>
				<polygon fill="#CFD765" points="461.87,140.053 466.838,130.655 466.977,154.525 				"/>
				<polygon fill="#CFD765" points="466.977,154.525 453.208,144.42 461.87,140.053 				"/>
				<polygon fill="#CFD765" points="461.87,140.053 458.244,133.303 466.838,130.655 				"/>
				<polygon fill="#CFD765" points="508.407,182.178 515.867,189.256 504.673,199.511 				"/>
				<polygon fill="#CFD765" points="483.669,146.7 482.249,140.867 488.225,141.248 				"/>
				<polygon fill="#CFD765" points="471.51,157.346 466.977,154.525 469.579,144.786 				"/>
				<polygon fill="#CFD765" points="471.51,157.346 469.579,144.786 472.595,149.269 				"/>
				<polygon fill="#CFD765" points="472.595,149.269 480.286,156.994 471.51,157.346 				"/>
				<polygon fill="#CFD765" points="504.673,199.511 476.053,177.988 494.72,171.42 				"/>
				<polygon fill="#CFD765" points="494.72,171.42 476.053,177.988 484.702,158.963 				"/>
				<polygon fill="#CFD765" points="494.72,171.42 484.702,158.963 496.785,165.923 				"/>
				<polygon fill="#CFD765" points="508.407,182.178 494.72,171.42 506.863,167.53 				"/>
				<polygon fill="#CFD765" points="504.673,199.511 494.72,171.42 508.407,182.178 				"/>
				<polygon fill="#CFD765" points="475.177,144.45 483.669,146.7 472.595,149.269 				"/>
				<polygon fill="#CFD765" points="483.669,146.7 475.177,144.45 482.249,140.867 				"/>
				<polygon fill="#CFD765" points="475.177,144.45 472.595,149.269 469.579,144.786 				"/>
				<polygon fill="#CFD765" points="453.208,144.42 466.977,154.525 414.828,160.465 				"/>
				<polygon fill="#CFD765" points="414.828,160.465 466.977,154.525 444.683,165.44 				"/>
				<polygon fill="#CFD765" points="408.374,150.976 439.69,143.466 414.828,160.465 				"/>
				<polygon fill="#CFD765" points="453.208,144.42 414.828,160.465 439.69,143.466 				"/>
				<polygon fill="#CFD765" points="414.828,160.465 397.828,165.602 394.589,152.917 				"/>
				<polygon fill="#CFD765" points="408.374,150.976 414.828,160.465 394.589,152.917 				"/>
				<polygon fill="#CFD765" points="465.517,184.79 476.053,177.988 483.843,199.681 				"/>
				<polygon fill="#CFD765" points="451.988,138.585 424.283,128.314 451.408,132.136 				"/>
				<polygon fill="#CFD765" points="424.283,128.314 451.988,138.585 439.69,143.466 				"/>
				<polygon fill="#CFD765" points="440.728,177.175 421.334,187.977 418.792,187.303 				"/>
				<polygon fill="#CFD765" points="381.176,141.882 408.374,150.976 394.682,149.071 				"/>
				<polygon fill="#CFD765" points="408.374,150.976 381.176,141.882 401.927,139.221 				"/>
				<polygon fill="#CFD765" points="394.682,149.071 394.589,152.917 381.176,141.882 				"/>
				<polygon fill="#CFD765" points="476.053,177.988 474.325,170.983 484.702,158.963 				"/>
				<polygon fill="#CFD765" points="515.867,189.256 515.634,192.619 504.673,199.511 				"/>
				<polygon fill="#CFD765" points="413.634,162.136 444.683,165.44 440.728,177.175 				"/>
				<polygon fill="#CFD765" points="414.828,160.465 444.683,165.44 413.634,162.136 				"/>
				<polygon fill="#CFD765" points="418.792,187.303 413.634,162.136 440.728,177.175 				"/>
				<polygon fill="#CFD765" points="408.374,150.976 421.928,142.622 439.69,143.466 				"/>
				<polygon fill="#CFD765" points="424.283,128.314 439.69,143.466 421.928,142.622 				"/>
				<polygon fill="#CFD765" points="408.374,150.976 401.927,139.221 421.928,142.622 				"/>
				<polygon fill="#CFD765" points="421.928,142.622 411.781,132.983 424.283,128.314 				"/>
				<polygon fill="#CFD765" points="483.86,204.59 482.147,214.995 474.934,207.137 				"/>
				<polygon fill="#CFD765" points="444.163,199.244 440.728,177.175 458.921,182.137 				"/>
				<polygon fill="#CFD765" points="444.163,199.244 458.921,182.137 456.999,194.225 				"/>
				<polygon fill="#CFD765" points="444.163,199.244 421.334,187.977 440.728,177.175 				"/>
				<polygon fill="#CFD765" points="444.163,199.244 444.389,212.151 442.522,211.973 				"/>
				<polygon fill="#CFD765" points="482.147,214.995 458.271,229.32 474.934,207.137 				"/>
				<polygon fill="#CFD765" points="430.833,222.256 431.946,218.05 440.146,217.323 				"/>
				<polygon fill="#CFD765" points="425.739,225.278 440.146,217.323 424.524,228.28 				"/>
				<polygon fill="#CFD765" points="425.739,225.278 430.833,222.256 440.146,217.323 				"/>
				<polygon fill="#CFD765" points="482.147,214.995 483.86,204.59 491.06,201.099 				"/>
				<polygon fill="#CFD765" points="482.147,214.995 491.06,201.099 488.148,208.968 				"/>
				<polygon fill="#CFD765" points="329.753,164.593 341.046,136.198 381.176,141.882 				"/>
				<polygon fill="#CFD765" points="341.046,136.198 329.753,164.593 317.048,142.481 				"/>
				<polygon fill="#CFD765" points="486.68,195.744 483.843,199.681 476.053,177.988 				"/>
				<polygon fill="#CFD765" points="476.053,177.988 504.673,199.511 486.68,195.744 				"/>
				<polygon fill="#CFD765" points="442.394,211.973 444.023,216.62 441.522,217.293 				"/>
				<polygon fill="#CFD765" points="442.522,211.973 441.522,217.293 444.163,199.244 				"/>
				<polygon fill="#CFD765" points="440.146,217.323 441.522,217.293 424.524,228.28 				"/>
				<polygon fill="#CFD765" points="444.023,216.62 424.524,228.28 441.522,217.293 				"/>
				<polygon fill="#CFD765" points="488.334,216.425 482.557,220.452 482.147,214.995 				"/>
				<polygon fill="#CFD765" points="488.148,208.968 497.746,212.208 488.334,216.425 				"/>
				<polygon fill="#CFD765" points="488.148,208.968 488.334,216.425 482.147,214.995 				"/>
				<polygon fill="#CFD765" points="444.389,212.151 444.163,199.244 447.488,211.833 				"/>
				<polygon fill="#CFD765" points="474.934,207.137 447.488,211.833 483.843,199.681 				"/>
				<polygon fill="#CFD765" points="456.999,194.225 447.488,211.833 444.163,199.244 				"/>
				<polygon fill="#CFD765" points="465.517,184.79 447.488,211.833 456.999,194.225 				"/>
				<polygon fill="#CFD765" points="483.843,199.681 447.488,211.833 465.517,184.79 				"/>
				<polygon fill="#CFD765" points="444.163,199.244 438.928,210.219 433.627,205.054 				"/>
				<polygon fill="#CFD765" points="447.729,216.211 474.934,207.137 458.271,229.32 				"/>
				<polygon fill="#CFD765" points="447.729,216.211 447.488,211.833 474.934,207.137 				"/>
				<polygon fill="#CFD765" points="346.884,172.67 329.753,164.593 381.176,141.882 				"/>
				<polygon fill="#CFD765" points="346.884,172.67 394.589,152.917 397.828,165.602 				"/>
				<polygon fill="#CFD765" points="346.884,172.67 381.176,141.882 394.589,152.917 				"/>
				<polygon fill="#CFD765" points="439.777,212.144 431.946,218.05 438.021,212.498 				"/>
				<polygon fill="#CFD765" points="444.163,199.244 441.522,217.293 439.777,212.144 				"/>
				<polygon fill="#CFD765" points="438.928,210.219 444.163,199.244 439.777,212.144 				"/>
				<polygon fill="#CFD765" points="439.777,212.144 440.146,217.323 431.946,218.05 				"/>
				<polygon fill="#CFD765" points="439.777,212.144 429.123,207.805 438.928,210.219 				"/>
				<polygon fill="#CFD765" points="329.753,164.593 318.938,166.953 299.483,158.051 				"/>
				<polygon fill="#CFD765" points="299.483,158.051 318.938,166.953 295.698,171.51 				"/>
				<polygon fill="#CFD765" points="295.698,171.51 289.117,166.789 299.483,158.051 				"/>
				<polygon fill="#CFD765" points="329.753,164.593 299.483,158.051 311.094,154.712 				"/>
				<polygon fill="#CFD765" points="444.163,199.244 416.981,196.678 419.144,194.379 				"/>
				<polygon fill="#CFD765" points="444.163,199.244 419.144,194.379 421.334,187.977 				"/>
				<polygon fill="#CFD765" points="311.094,154.712 318.656,148.43 329.753,164.593 				"/>
				<polygon fill="#CFD765" points="318.656,148.43 317.048,142.481 329.753,164.593 				"/>
				<polygon fill="#CFD765" points="444.163,199.244 433.627,205.054 391.124,210.375 				"/>
				<polygon fill="#CFD765" points="432.709,212.366 425.739,225.278 391.124,210.375 				"/>
				<polygon fill="#CFD765" points="416.981,196.678 444.163,199.244 391.124,210.375 				"/>
				<polygon fill="#CFD765" points="391.124,210.375 397.828,165.602 413.634,162.136 				"/>
				<polygon fill="#CFD765" points="418.587,193.499 416.981,196.678 391.124,210.375 				"/>
				<polygon fill="#CFD765" points="416.433,190.637 418.587,193.499 391.124,210.375 				"/>
				<polygon fill="#CFD765" points="424.524,228.28 391.124,210.375 425.739,225.278 				"/>
				<polygon fill="#CFD765" points="418.792,187.303 391.124,210.375 413.634,162.136 				"/>
				<polygon fill="#CFD765" points="418.792,187.303 416.433,190.637 391.124,210.375 				"/>
				<polygon fill="#CFD765" points="443.268,215.584 458.271,229.32 424.524,228.28 				"/>
				<polygon fill="#CFD765" points="443.268,215.584 447.729,216.211 458.271,229.32 				"/>
				<polygon fill="#CFD765" points="424.524,228.28 458.271,229.32 447.538,240.183 				"/>
				<polygon fill="#CFD765" points="439.777,212.144 422.28,208.66 429.123,207.805 				"/>
				<polygon fill="#CFD765" points="391.124,210.375 433.627,205.054 422.28,208.66 				"/>
				<polygon fill="#CFD765" points="432.709,212.366 391.124,210.375 422.28,208.66 				"/>
				<polygon fill="#CFD765" points="439.777,212.144 438.021,212.498 422.28,208.66 				"/>
				<polygon fill="#CFD765" points="438.021,212.498 432.709,212.366 422.28,208.66 				"/>
				<polygon fill="#CFD765" points="295.698,171.51 318.938,166.953 283.616,178.292 				"/>
				<polygon fill="#CFD765" points="447.538,240.183 431.002,258.083 424.524,228.28 				"/>
				<polygon fill="#CFD765" points="431.002,258.083 447.538,240.183 446.469,246.877 				"/>
				<polygon fill="#CFD765" points="391.124,210.375 424.524,228.28 431.002,258.083 				"/>
				<polygon fill="#CFD765" points="338.004,254.01 332.294,248 331.581,228.806 				"/>
				<polygon fill="#CFD765" points="311.094,154.712 301.807,150.855 318.656,148.43 				"/>
				<polygon fill="#CFD765" points="431.002,258.083 423.369,265.046 406.503,263.368 				"/>
				<polygon fill="#CFD765" points="431.002,258.083 406.503,263.368 391.124,210.375 				"/>
				<polygon fill="#CFD765" points="443.668,296.633 434.304,296.605 421.96,286.428 				"/>
				<polygon fill="#CFD765" points="363.746,194.508 344.879,209.32 346.884,172.67 				"/>
				<polygon fill="#CFD765" points="363.746,194.508 346.884,172.67 397.828,165.602 				"/>
				<polygon fill="#CFD765" points="363.746,194.508 397.828,165.602 391.124,210.375 				"/>
				<polygon fill="#CFD765" points="431.304,276.755 423.643,273.981 431.002,258.083 				"/>
				<polygon fill="#CFD765" points="431.002,258.083 423.643,273.981 423.369,265.046 				"/>
				<polygon fill="#CFD765" points="338.004,254.01 331.581,228.806 363.985,230.32 				"/>
				<polygon fill="#CFD765" points="405.017,267.192 391.124,210.375 406.503,263.368 				"/>
				<polygon fill="#CFD765" points="431.304,276.755 427.197,279.554 423.643,273.981 				"/>
				<polygon fill="#CFD765" points="435.629,304.558 432.295,305.375 431.186,303.009 				"/>
				<polygon fill="#CFD765" points="405.355,302.206 400.444,293.135 409.079,292.143 				"/>
				<polygon fill="#CFD765" points="460.271,303.987 461.585,301.707 464.859,304.058 				"/>
				<polygon fill="#CFD765" points="435.699,328.378 448.389,324.85 446.031,327.283 				"/>
				<polygon fill="#CFD765" points="435.699,328.378 447.673,322.409 448.389,324.85 				"/>
				<polygon fill="#CFD765" points="469.309,302.54 475.041,303.971 472.175,304.943 				"/>
				<polygon fill="#CFD765" points="445.346,296.823 457.984,302.506 449.655,305.098 				"/>
				<polygon fill="#CFD765" points="346.784,269.455 363.985,230.32 391.124,210.375 				"/>
				<polygon fill="#CFD765" points="346.784,269.455 391.124,210.375 384.487,270.891 				"/>
				<polygon fill="#CFD765" points="474.405,333.627 478.241,334.54 482.564,341.049 				"/>
				<polygon fill="#CFD765" points="344.522,258.932 338.004,254.01 363.985,230.32 				"/>
				<polygon fill="#CFD765" points="338.004,254.01 344.522,258.932 342.862,260.349 				"/>
				<polygon fill="#CFD765" points="344.522,258.932 363.985,230.32 346.784,269.455 				"/>
				<polygon fill="#CFD765" points="422.385,289.417 421.96,286.428 434.304,296.605 				"/>
				<polygon fill="#CFD765" points="422.385,289.417 416.583,290.013 421.96,286.428 				"/>
				<polygon fill="#CFD765" points="338.004,254.01 342.862,260.349 342.134,268.165 				"/>
				<polygon fill="#CFD765" points="348.255,286.498 338.593,271.918 342.134,268.165 				"/>
				<polygon fill="#CFD765" points="338.004,254.01 342.134,268.165 338.593,271.918 				"/>
				<polygon fill="#CFD765" points="424.119,334.471 424.35,332.144 429.888,334.248 				"/>
				<polygon fill="#CFD765" points="404.33,322.872 415.698,314.431 412.761,326.28 				"/>
				<polygon fill="#CFD765" points="400.444,293.135 405.355,302.206 394.908,300.414 				"/>
				<polygon fill="#CFD765" points="415.698,314.431 401.761,308.883 416.271,312.782 				"/>
				<polygon fill="#CFD765" points="394.908,300.414 405.355,302.206 401.761,308.883 				"/>
				<polygon fill="#CFD765" points="404.33,322.872 401.761,308.883 415.698,314.431 				"/>
				<polygon fill="#CFD765" points="424.119,334.471 429.888,334.248 428.04,336.214 				"/>
				<polygon fill="#CFD765" points="389.767,316.863 401.761,308.883 404.33,322.872 				"/>
				<polygon fill="#CFD765" points="385.957,302.188 389.767,316.863 384.83,310.37 				"/>
				<polygon fill="#CFD765" points="391.124,210.375 405.017,267.192 393.357,264.906 				"/>
				<polygon fill="#CFD765" points="384.487,270.891 391.124,210.375 393.357,264.906 				"/>
				<polygon fill="#CFD765" points="470.208,327.027 474.405,333.627 463.534,329.047 				"/>
				<polygon fill="#CFD765" points="385.378,301.942 401.761,308.883 389.767,316.863 				"/>
				<polygon fill="#CFD765" points="385.378,301.942 394.908,300.414 401.761,308.883 				"/>
				<polygon fill="#CFD765" points="384.83,310.37 385.021,301.792 385.957,302.188 				"/>
				<polygon fill="#CFD765" points="357.311,297.829 346.784,269.455 384.487,270.891 				"/>
				<polygon fill="#CFD765" points="357.311,297.829 384.83,310.37 376.067,311.592 				"/>
				<polygon fill="#CFD765" points="357.311,297.829 384.487,270.891 379.636,292.057 				"/>
				<polygon fill="#CFD765" points="357.311,297.829 379.636,292.057 384.955,301.042 				"/>
				<polygon fill="#CFD765" points="384.83,310.37 384.955,301.042 385.173,301.748 				"/>
				<polygon fill="#CFD765" points="357.311,297.829 384.955,301.042 384.83,310.37 				"/>
				<polygon fill="#CFD765" points="363.985,230.32 362.308,211.617 391.124,210.375 				"/>
				<polygon fill="#CFD765" points="331.581,228.806 344.879,209.32 362.308,211.617 				"/>
				<polygon fill="#CFD765" points="331.581,228.806 362.308,211.617 363.985,230.32 				"/>
				<polygon fill="#CFD765" points="362.308,211.617 363.746,194.508 391.124,210.375 				"/>
				<polygon fill="#CFD765" points="344.879,209.32 363.746,194.508 362.308,211.617 				"/>
				<polygon fill="#CFD765" points="505.044,358.955 501.893,364.188 493.396,343.206 				"/>
				<polygon fill="#CFD765" points="404.33,322.872 412.761,326.28 416.114,333.938 				"/>
				<polygon fill="#CFD765" points="416.114,333.938 424.35,332.144 424.119,334.471 				"/>
				<polygon fill="#CFD765" points="408.169,331.574 404.33,322.872 416.114,333.938 				"/>
				<polygon fill="#CFD765" points="446.031,327.283 454.687,327.719 435.699,328.378 				"/>
				<polygon fill="#CFD765" points="454.687,327.719 463.534,329.047 435.699,328.378 				"/>
				<polygon fill="#CFD765" points="446.031,327.283 454.217,325.182 454.687,327.719 				"/>
				<polygon fill="#CFD765" points="544.273,380.854 519.913,371.669 531.61,373.334 				"/>
				<polygon fill="#CFD765" points="493.396,343.206 463.432,399.091 482.564,341.049 				"/>
				<polygon fill="#CFD765" points="493.396,343.206 501.893,364.188 463.432,399.091 				"/>
				<polygon fill="#CFD765" points="463.534,329.047 474.405,333.627 463.432,399.091 				"/>
				<polygon fill="#CFD765" points="463.432,399.091 518.272,368.893 519.913,371.669 				"/>
				<polygon fill="#CFD765" points="474.405,333.627 482.564,341.049 463.432,399.091 				"/>
				<polygon fill="#CFD765" points="518.272,368.893 463.432,399.091 501.893,364.188 				"/>
				<polygon fill="#CFD765" points="435.105,412.935 420.205,366.364 442.294,400.977 				"/>
				<polygon fill="#CFD765" points="435.105,412.935 442.294,400.977 463.432,399.091 				"/>
				<polygon fill="#CFD765" points="408.169,331.574 416.114,333.938 418.851,338.363 				"/>
				<polygon fill="#CFD765" points="416.114,333.938 424.119,334.471 418.851,338.363 				"/>
				<polygon fill="#CFD765" points="545.375,391.721 535.656,407.454 544.273,380.854 				"/>
				<polygon fill="#CFD765" points="544.273,380.854 535.656,407.454 519.913,371.669 				"/>
				<polygon fill="#CFD765" points="535.656,407.454 519.787,407.489 519.913,371.669 				"/>
				<polygon fill="#CFD765" points="535.715,422.945 519.787,407.489 535.656,407.454 				"/>
				<polygon fill="#CFD765" points="535.715,422.945 522.619,441.211 519.787,407.489 				"/>
				<polygon fill="#CFD765" points="429.888,334.248 442.115,345.22 428.04,336.214 				"/>
				<polygon fill="#CFD765" points="442.115,345.22 463.534,329.047 463.432,399.091 				"/>
				<polygon fill="#CFD765" points="442.115,345.22 435.699,328.378 463.534,329.047 				"/>
				<polygon fill="#CFD765" points="429.888,334.248 435.026,332.176 442.115,345.22 				"/>
				<polygon fill="#CFD765" points="428.04,336.214 442.115,345.22 432.693,352.207 				"/>
				<polygon fill="#CFD765" points="442.294,400.977 442.115,345.22 463.432,399.091 				"/>
				<polygon fill="#CFD765" points="435.699,328.378 442.115,345.22 435.026,332.176 				"/>
				<polygon fill="#CFD765" points="442.115,345.22 420.205,366.364 432.693,352.207 				"/>
				<polygon fill="#CFD765" points="420.205,366.364 442.115,345.22 442.294,400.977 				"/>
				<polygon fill="#CFD765" points="535.715,422.945 529.325,439.404 522.619,441.211 				"/>
				<polygon fill="#CFD765" points="435.105,412.935 463.432,399.091 461.659,426.197 				"/>
				<polygon fill="#CFD765" points="435.105,412.935 461.659,426.197 452.506,429.283 				"/>
				<polygon fill="#CFD765" points="420.205,366.364 435.105,412.935 417.412,381.63 				"/>
				<polygon fill="#CFD765" points="513.238,460.132 492.947,421.553 512.458,449.394 				"/>
				<polygon fill="#CFD765" points="492.947,421.553 463.432,399.091 519.913,371.669 				"/>
				<polygon fill="#CFD765" points="461.659,426.197 463.432,399.091 492.947,421.553 				"/>
				<polygon fill="#CFD765" points="522.619,441.211 492.947,421.553 519.787,407.489 				"/>
				<polygon fill="#CFD765" points="513.238,460.132 506.79,468.738 492.947,421.553 				"/>
				<polygon fill="#CFD765" points="492.947,421.553 522.619,441.211 512.458,449.394 				"/>
				<polygon fill="#CFD765" points="460.835,487.887 461.659,426.197 492.947,421.553 				"/>
				<polygon fill="#CFD765" points="492.947,421.553 519.913,371.669 519.787,407.489 				"/>
				<polygon fill="#CFD765" points="482.039,509.313 460.465,513.472 460.835,487.887 				"/>
				<polygon fill="#CFD765" points="482.039,509.313 460.835,487.887 478.628,501.77 				"/>
				<polygon fill="#CFD765" points="484.32,501.291 480.736,475.693 484.385,495.37 				"/>
				<polygon fill="#CFD765" points="480.736,475.693 501.862,480.504 492.123,481.063 				"/>
				<polygon fill="#CFD765" points="480.736,475.693 494.393,493.196 484.385,495.37 				"/>
				<polygon fill="#CFD765" points="506.79,468.738 480.736,475.693 492.947,421.553 				"/>
				<polygon fill="#CFD765" points="506.79,468.738 501.862,480.504 480.736,475.693 				"/>
				<polygon fill="#CFD765" points="492.123,481.063 496.5,487.467 480.736,475.693 				"/>
				<polygon fill="#CFD765" points="480.736,475.693 496.5,487.467 494.393,493.196 				"/>
				<polygon fill="#CFD765" points="484.32,501.291 478.628,501.77 480.736,475.693 				"/>
				<polygon fill="#CFD765" points="460.835,487.887 480.736,475.693 478.628,501.77 				"/>
				<polygon fill="#CFD765" points="460.835,487.887 492.947,421.553 480.736,475.693 				"/>
				<polygon fill="#CFD765" points="452.506,429.283 461.659,426.197 453.387,502.552 				"/>
				<polygon fill="#CFD765" points="453.387,502.552 461.659,426.197 460.835,487.887 				"/>
				<polygon fill="#CFD765" points="460.465,513.472 453.387,502.552 460.835,487.887 				"/>
				<polygon fill="#CFD765" points="477.382,519.44 460.465,513.472 482.039,509.313 				"/>
				<polygon fill="#CFD765" points="289.117,166.789 283.616,178.292 295.698,171.51 				"/>
			</g>
		</g>
	</g>
	<g>
		<g>
			<g>
				<polygon fill="#558034" points="466.848,154.525 469.932,134.648 469.45,144.786 				"/>
				<polygon fill="#96AE55" points="469.932,134.648 466.848,154.525 466.709,130.655 				"/>
				<polygon fill="#C1CF73" points="461.741,140.053 466.709,130.655 466.848,154.525 				"/>
				<polygon fill="#86A768" points="466.848,154.525 453.079,144.42 461.741,140.053 				"/>
				<polygon fill="#6C9755" points="461.741,140.053 458.115,133.303 466.709,130.655 				"/>
				<polygon fill="#8EB564" points="508.278,182.178 515.738,189.256 504.544,199.511 				"/>
				<polygon fill="#F9ED87" points="483.54,146.7 482.12,140.867 488.096,141.248 				"/>
				<polygon fill="#CBD87D" points="471.381,157.346 466.848,154.525 469.45,144.786 				"/>
				<polygon fill="#648546" points="471.381,157.346 469.45,144.786 472.466,149.269 				"/>
				<polygon fill="#729854" points="472.466,149.269 480.157,156.994 471.381,157.346 				"/>
				<polygon fill="#ABBE64" points="504.544,199.511 475.924,177.988 494.591,171.42 				"/>
				<polygon fill="#C0CE63" points="494.591,171.42 475.924,177.988 484.573,158.963 				"/>
				<polygon fill="#89AD5C" points="494.591,171.42 484.573,158.963 496.656,165.923 				"/>
				<polygon fill="#608A3F" points="508.278,182.178 494.591,171.42 506.734,167.53 				"/>
				<polygon fill="#78A257" points="504.544,199.511 494.591,171.42 508.278,182.178 				"/>
				<polygon fill="#678B46" points="475.048,144.45 483.54,146.7 472.466,149.269 				"/>
				<polygon fill="#8AB058" points="483.54,146.7 475.048,144.45 482.12,140.867 				"/>
				<polygon fill="#F8F695" points="475.048,144.45 472.466,149.269 469.45,144.786 				"/>
				<polygon fill="#82AC6A" points="453.079,144.42 466.848,154.525 414.699,160.465 				"/>
				<polygon fill="#B6CA62" points="414.699,160.465 466.848,154.525 444.554,165.44 				"/>
				<polygon fill="#CBD87D" points="408.244,150.976 439.562,143.466 414.699,160.465 				"/>
				<polygon fill="#648546" points="453.079,144.42 414.699,160.465 439.562,143.466 				"/>
				<polygon fill="#869D60" points="414.699,160.465 397.699,165.602 394.46,152.917 				"/>
				<polygon fill="#B0C15F" points="408.244,150.976 414.699,160.465 394.46,152.917 				"/>
				<polygon fill="#B6CF61" points="465.388,184.79 475.924,177.988 483.714,199.681 				"/>
				<polygon fill="#C7D56C" points="451.859,138.585 424.154,128.314 451.279,132.136 				"/>
				<polygon fill="#BFD06A" points="424.154,128.314 451.859,138.585 439.562,143.466 				"/>
				<polygon fill="#85B160" points="440.599,177.175 421.205,187.977 418.663,187.303 				"/>
				<polygon fill="#89AF69" points="381.047,141.882 408.244,150.976 394.553,149.071 				"/>
				<polygon fill="#7A974D" points="408.244,150.976 381.047,141.882 401.798,139.221 				"/>
				<polygon fill="#8FB055" points="394.553,149.071 394.46,152.917 381.047,141.882 				"/>
				<polygon fill="#658D34" points="475.924,177.988 474.196,170.983 484.573,158.963 				"/>
				<polygon fill="#DCEC77" points="515.738,189.256 515.505,192.619 504.544,199.511 				"/>
				<polygon fill="#7B9F50" points="413.506,162.136 444.554,165.44 440.599,177.175 				"/>
				<polygon fill="#77984B" points="414.699,160.465 444.554,165.44 413.506,162.136 				"/>
				<polygon fill="#7EA354" points="418.663,187.303 413.506,162.136 440.599,177.175 				"/>
				<polygon fill="#558034" points="408.244,150.976 421.799,142.622 439.562,143.466 				"/>
				<polygon fill="#ABC364" points="424.154,128.314 439.562,143.466 421.799,142.622 				"/>
				<polygon fill="#9EB25C" points="408.244,150.976 401.798,139.221 421.799,142.622 				"/>
				<polygon fill="#D0DC86" points="421.799,142.622 411.652,132.983 424.154,128.314 				"/>
				<polygon fill="#A5C360" points="483.731,204.59 482.019,214.995 474.805,207.137 				"/>
				<polygon fill="#BFCE6C" points="444.034,199.244 440.599,177.175 458.792,182.137 				"/>
				<polygon fill="#C8D774" points="444.034,199.244 458.792,182.137 456.87,194.225 				"/>
				<polygon fill="#BBCD6B" points="444.034,199.244 421.205,187.977 440.599,177.175 				"/>
				<polygon fill="#6A9E49" points="444.034,199.244 444.26,212.151 442.394,211.973 				"/>
				<polygon fill="#B1C46E" points="482.019,214.995 458.142,229.32 474.805,207.137 				"/>
				<polygon fill="#75A155" points="430.704,222.256 431.817,218.05 440.017,217.323 				"/>
				<polygon fill="#8DAC60" points="425.61,225.278 440.017,217.323 424.396,228.28 				"/>
				<polygon fill="#7DA95E" points="425.61,225.278 430.704,222.256 440.017,217.323 				"/>
				<polygon fill="#F1F3A0" points="482.019,214.995 483.731,204.59 490.931,201.099 				"/>
				<polygon fill="#418638" points="482.019,214.995 490.931,201.099 488.02,208.968 				"/>
				<polygon fill="#8EAD59" points="329.625,164.593 340.917,136.198 381.047,141.882 				"/>
				<polygon fill="#A5BC5F" points="340.917,136.198 329.625,164.593 316.919,142.481 				"/>
				<polygon fill="#E8EB81" points="486.551,195.744 483.714,199.681 475.924,177.988 				"/>
				<polygon fill="#9AB464" points="475.924,177.988 504.544,199.511 486.551,195.744 				"/>
				<polygon fill="#6DA26C" points="442.394,211.973 442.522,211.973 444.023,216.62 441.394,217.293 				"/>
				<polygon fill="#3D8058" points="442.394,211.973 441.394,217.293 444.034,199.244 				"/>
				<polygon fill="#6F9548" points="440.017,217.323 441.394,217.293 424.396,228.28 				"/>
				<polygon fill="#BBCD6B" points="443.895,216.62 424.396,228.28 441.394,217.293 				"/>
				<polygon fill="#C7CF5A" points="488.205,216.425 482.428,220.452 482.019,214.995 				"/>
				<polygon fill="#A4B86E" points="488.02,208.968 497.617,212.208 488.205,216.425 				"/>
				<polygon fill="#E3EB64" points="488.02,208.968 488.205,216.425 482.019,214.995 				"/>
				<polygon fill="#598C4D" points="444.26,212.151 444.034,199.244 447.359,211.833 				"/>
				<polygon fill="#75A251" points="474.805,207.137 447.359,211.833 483.714,199.681 				"/>
				<polygon fill="#BCCC6A" points="456.87,194.225 447.359,211.833 444.034,199.244 				"/>
				<polygon fill="#598C4D" points="465.388,184.79 447.359,211.833 456.87,194.225 				"/>
				<polygon fill="#B6CD67" points="483.714,199.681 447.359,211.833 465.388,184.79 				"/>
				<polygon fill="#78A84A" points="444.034,199.244 438.799,210.219 433.498,205.054 				"/>
				<polygon fill="#75A155" points="447.601,216.211 474.805,207.137 458.142,229.32 				"/>
				<polygon fill="#9EBC5B" points="447.601,216.211 447.359,211.833 474.805,207.137 				"/>
				<polygon fill="#BCCB6B" points="346.755,172.67 329.625,164.593 381.047,141.882 				"/>
				<polygon fill="#789A4E" points="346.755,172.67 394.46,152.917 397.699,165.602 				"/>
				<polygon fill="#8EAD58" points="346.755,172.67 381.047,141.882 394.46,152.917 				"/>
				<polygon fill="#6D9D58" points="439.648,212.144 431.817,218.05 437.892,212.498 				"/>
				<polygon fill="#70994B" points="444.034,199.244 441.394,217.293 439.648,212.144 				"/>
				<polygon fill="#8DB05F" points="438.799,210.219 444.034,199.244 439.648,212.144 				"/>
				<polygon fill="#73A533" points="439.648,212.144 439.812,212.625 440.146,217.323 431.817,218.05 				"/>
				<polygon fill="#AFC55C" points="439.648,212.144 428.994,207.805 438.799,210.219 				"/>
				<polygon fill="#668B44" points="329.625,164.593 318.809,166.953 299.354,158.051 				"/>
				<polygon fill="#6F994D" points="299.354,158.051 318.809,166.953 295.569,171.51 				"/>
				<polygon fill="#7C9E49" points="295.569,171.51 288.988,166.789 299.354,158.051 				"/>
				<polygon fill="#ADC963" points="329.625,164.593 299.354,158.051 310.965,154.712 				"/>
				<polygon fill="#718744" points="444.034,199.244 416.853,196.678 419.015,194.379 				"/>
				<polygon fill="#B7D06A" points="444.034,199.244 419.015,194.379 421.205,187.977 				"/>
				<polygon fill="#6F9560" points="310.965,154.712 318.527,148.43 329.625,164.593 				"/>
				<polygon fill="#79A465" points="318.527,148.43 316.919,142.481 329.625,164.593 				"/>
				<polygon fill="#D4E16F" points="444.034,199.244 433.498,205.054 390.994,210.375 				"/>
				<polygon fill="#709A55" points="432.58,212.366 425.61,225.278 390.994,210.375 				"/>
				<polygon fill="#89A75A" points="416.853,196.678 444.034,199.244 390.994,210.375 				"/>
				<polygon fill="#B7CB68" points="390.994,210.375 397.699,165.602 413.506,162.136 				"/>
				<polygon fill="#B6D079" points="418.458,193.499 416.853,196.678 390.994,210.375 				"/>
				<polygon fill="#568740" points="416.304,190.637 418.458,193.499 390.994,210.375 				"/>
				<polygon fill="#85A45E" points="424.396,228.28 390.994,210.375 425.61,225.278 				"/>
				<polygon fill="#83A04E" points="418.663,187.303 390.994,210.375 413.506,162.136 				"/>
				<polygon fill="#46812D" points="418.663,187.303 416.304,190.637 390.994,210.375 				"/>
				<polygon fill="#709447" points="443.139,215.584 458.142,229.32 424.396,228.28 				"/>
				<polygon fill="#82A458" points="443.139,215.584 447.601,216.211 458.142,229.32 				"/>
				<polygon fill="#C1D168" points="424.396,228.28 458.142,229.32 447.409,240.183 				"/>
				<polygon fill="#B9CB6A" points="439.648,212.144 422.151,208.66 428.994,207.805 				"/>
				<polygon fill="#D3E87A" points="390.994,210.375 433.498,205.054 422.151,208.66 				"/>
				<polygon fill="#537538" points="432.58,212.366 390.994,210.375 422.151,208.66 				"/>
				<polygon fill="#6B9844" points="439.648,212.144 437.892,212.498 422.151,208.66 				"/>
				<polygon fill="#3D7839" points="437.892,212.498 432.58,212.366 422.151,208.66 				"/>
				<polygon fill="#668B44" points="295.569,171.51 318.809,166.953 283.487,178.292 				"/>
				<polygon fill="#C3CF6C" points="447.409,240.183 430.873,258.083 424.396,228.28 				"/>
				<polygon fill="#C6CB63" points="430.873,258.083 447.409,240.183 446.34,246.877 				"/>
				<polygon fill="#8AAD5C" points="390.994,210.375 424.396,228.28 430.873,258.083 				"/>
				<polygon fill="#A1B75E" points="337.875,254.01 332.166,248 331.452,228.806 				"/>
				<polygon fill="#598747" points="310.965,154.712 301.678,150.855 318.527,148.43 				"/>
				<polygon fill="#688C3A" points="430.873,258.083 423.24,265.046 406.375,263.368 				"/>
				<polygon fill="#9AB662" points="430.873,258.083 406.375,263.368 390.994,210.375 				"/>
				<polygon fill="#A4B354" points="443.539,296.633 434.175,296.605 421.831,286.428 				"/>
				<polygon fill="#CFD673" points="363.617,194.508 344.75,209.32 346.755,172.67 				"/>
				<polygon fill="#B0C469" points="363.617,194.508 346.755,172.67 397.699,165.602 				"/>
				<polygon fill="#8AAD5A" points="363.617,194.508 397.699,165.602 390.994,210.375 				"/>
				<polygon fill="#678F50" points="431.433,276.755 423.643,273.981 431.002,258.083 				"/>
				<polygon fill="#DCE6B9" points="431.002,258.083 423.514,273.981 423.24,265.046 430.873,258.083 				"/>
				<polygon fill="#AEC36B" points="337.875,254.01 331.452,228.806 363.856,230.32 				"/>
				<polygon fill="#84A75A" points="404.888,267.192 390.994,210.375 406.375,263.368 				"/>
				<polygon fill="#75A155" points="431.304,276.755 427.068,279.554 423.514,273.981 				"/>
				<polygon fill="#ACC174" points="435.5,304.558 432.166,305.375 431.057,303.009 				"/>
				<polygon fill="#9CB45E" points="405.227,302.206 400.315,293.135 408.95,292.143 				"/>
				<polygon fill="#A5BE61" points="460.143,303.987 461.456,301.707 464.73,304.058 				"/>
				<polygon fill="#D5E982" points="435.57,328.378 448.26,324.85 445.902,327.283 				"/>
				<polygon fill="#95BB46" points="435.57,328.378 447.544,322.409 448.26,324.85 				"/>
				<polygon fill="#C3CF6C" points="469.18,302.54 474.912,303.971 472.046,304.943 				"/>
				<polygon fill="#CFD673" points="445.217,296.823 457.855,302.506 449.526,305.098 				"/>
				<polygon fill="#99B45F" points="346.655,269.455 363.856,230.32 390.994,210.375 				"/>
				<polygon fill="#A5BE61" points="346.655,269.455 390.994,210.375 384.358,270.891 				"/>
				<polygon fill="#6C9547" points="474.276,333.627 478.112,334.54 482.436,341.049 				"/>
				<polygon fill="#F2F2A0" points="344.394,258.932 337.875,254.01 363.856,230.32 				"/>
				<polygon fill="#C5D95E" points="337.875,254.01 344.394,258.932 342.733,260.349 				"/>
				<polygon fill="#7C9F4E" points="344.394,258.932 363.856,230.32 346.655,269.455 				"/>
				<polygon fill="#94AD4E" points="422.256,289.417 421.831,286.428 434.175,296.605 				"/>
				<polygon fill="#F3F6A1" points="422.256,289.417 416.454,290.013 421.831,286.428 				"/>
				<polygon fill="#8FBB4F" points="337.875,254.01 342.733,260.349 342.005,268.165 				"/>
				<polygon fill="#B8D489" points="348.126,286.498 338.464,271.918 342.005,268.165 				"/>
				<polygon fill="#EEEE7A" points="337.875,254.01 342.005,268.165 338.464,271.918 				"/>
				<polygon fill="#759E68" points="423.99,334.471 424.221,332.144 429.759,334.248 				"/>
				<polygon fill="#89AC63" points="404.201,322.872 415.567,314.431 412.632,326.28 				"/>
				<polygon fill="#A4B354" points="400.315,293.135 405.227,302.206 394.779,300.414 				"/>
				<polygon fill="#A1BA6A" points="415.567,314.431 401.632,308.883 416.142,312.782 				"/>
				<polygon fill="#89A958" points="394.779,300.414 405.227,302.206 401.632,308.883 				"/>
				<polygon fill="#95AE54" points="404.201,322.872 401.632,308.883 415.567,314.431 				"/>
				<polygon fill="#F7F8A5" points="423.99,334.471 429.759,334.248 427.911,336.214 				"/>
				<polygon fill="#95B058" points="389.638,316.863 401.632,308.883 404.201,322.872 				"/>
				<polygon fill="#B7CB68" points="385.828,302.188 389.638,316.863 384.701,310.37 				"/>
				<polygon fill="#88A54B" points="390.994,210.375 404.888,267.192 393.229,264.906 				"/>
				<polygon fill="#A2B85C" points="384.358,270.891 390.994,210.375 393.229,264.906 				"/>
				<polygon fill="#91AD5C" points="470.079,327.027 474.276,333.627 463.405,329.047 				"/>
				<polygon fill="#A5BE61" points="385.25,301.942 401.632,308.883 389.638,316.863 				"/>
				<polygon fill="#98B463" points="385.25,301.942 394.779,300.414 401.632,308.883 				"/>
				<polygon fill="#85A858" points="384.701,310.37 384.893,301.792 385.828,302.188 				"/>
				<polygon fill="#ABBC5E" points="357.182,297.829 346.655,269.455 384.358,270.891 				"/>
				<polygon fill="#89B05F" points="357.182,297.829 384.701,310.37 375.938,311.592 				"/>
				<polygon fill="#B6C567" points="357.182,297.829 384.358,270.891 379.507,292.057 				"/>
				<polygon fill="#B3BE5A" points="357.182,297.829 379.507,292.057 384.826,301.042 				"/>
				<polygon fill="#7C9A4D" points="384.701,310.37 384.826,301.042 385.044,301.748 				"/>
				<polygon fill="#628944" points="357.182,297.829 384.826,301.042 384.701,310.37 				"/>
				<polygon fill="#6A8F46" points="363.856,230.32 362.179,211.617 390.994,210.375 				"/>
				<polygon fill="#F6F4A3" points="331.452,228.806 344.75,209.32 362.179,211.617 				"/>
				<polygon fill="#7B9C4C" points="331.452,228.806 362.179,211.617 363.856,230.32 				"/>
				<polygon fill="#8DB160" points="362.179,211.617 363.617,194.508 390.994,210.375 				"/>
				<polygon fill="#F4F39E" points="344.75,209.32 363.617,194.508 362.179,211.617 				"/>
				<polygon fill="#7BA147" points="504.915,358.955 501.764,364.188 493.268,343.206 				"/>
				<polygon fill="#B5C143" points="404.201,322.872 412.632,326.28 415.985,333.938 				"/>
				<polygon fill="#769C3E" points="415.985,333.938 424.221,332.144 423.99,334.471 				"/>
				<polygon fill="#C8D05C" points="408.04,331.574 404.201,322.872 415.985,333.938 				"/>
				<polygon fill="#C9DD70" points="445.902,327.283 454.558,327.719 435.57,328.378 				"/>
				<polygon fill="#C1D270" points="454.558,327.719 463.405,329.047 435.57,328.378 				"/>
				<polygon fill="#E9F281" points="445.902,327.283 454.088,325.182 454.558,327.719 				"/>
				<polygon fill="#9CB65C" points="544.146,380.854 519.784,371.669 531.481,373.334 				"/>
				<polygon fill="#F1F4A1" points="493.268,343.206 463.303,399.091 482.436,341.049 				"/>
				<polygon fill="#759E50" points="493.268,343.206 501.764,364.188 463.303,399.091 				"/>
				<polygon fill="#B7CB68" points="463.405,329.047 474.276,333.627 463.303,399.091 				"/>
				<polygon fill="#CAD66D" points="463.303,399.091 518.144,368.893 519.784,371.669 				"/>
				<polygon fill="#7BA64F" points="474.276,333.627 482.436,341.049 463.303,399.091 				"/>
				<polygon fill="#CFD765" points="518.144,368.893 463.303,399.091 501.764,364.188 				"/>
				<polygon fill="#7DA763" points="434.977,412.935 420.076,366.364 442.165,400.977 				"/>
				<polygon fill="#83A355" points="434.977,412.935 442.165,400.977 463.303,399.091 				"/>
				<polygon fill="#DBE497" points="408.04,331.574 415.985,333.938 418.722,338.363 				"/>
				<polygon fill="#89AF4C" points="415.985,333.938 423.99,334.471 418.722,338.363 				"/>
				<polygon fill="#C5D370" points="545.246,391.721 535.527,407.454 544.146,380.854 				"/>
				<polygon fill="#F1F599" points="544.146,380.854 535.527,407.454 519.784,371.669 				"/>
				<polygon fill="#E2E982" points="535.527,407.454 519.658,407.489 519.784,371.669 				"/>
				<polygon fill="#B8C15F" points="535.586,422.945 519.658,407.489 535.527,407.454 				"/>
				<polygon fill="#DBE381" points="535.586,422.945 522.49,441.211 519.658,407.489 				"/>
				<polygon fill="#C8DD79" points="429.759,334.248 441.986,345.22 427.911,336.214 				"/>
				<polygon fill="#82A358" points="441.986,345.22 463.405,329.047 463.303,399.091 				"/>
				<polygon fill="#C1D270" points="441.986,345.22 435.57,328.378 463.405,329.047 				"/>
				<polygon fill="#C9D274" points="429.759,334.248 434.897,332.176 441.986,345.22 				"/>
				<polygon fill="#B9D280" points="427.911,336.214 441.986,345.22 432.564,352.207 				"/>
				<polygon fill="#9CB65C" points="442.165,400.977 441.986,345.22 463.303,399.091 				"/>
				<polygon fill="#82A357" points="435.57,328.378 441.986,345.22 434.897,332.176 				"/>
				<polygon fill="#E8F69E" points="441.986,345.22 420.076,366.364 432.564,352.207 				"/>
				<polygon fill="#A7BD5F" points="420.076,366.364 441.986,345.22 442.165,400.977 				"/>
				<polygon fill="#F2E987" points="535.586,422.945 529.196,439.404 522.49,441.211 				"/>
				<polygon fill="#BECF6A" points="434.977,412.935 463.303,399.091 461.53,426.197 				"/>
				<polygon fill="#B8C15F" points="434.977,412.935 461.53,426.197 452.377,429.283 				"/>
				<polygon fill="#80A45F" points="420.076,366.364 434.977,412.935 417.283,381.63 				"/>
				<polygon fill="#759C4E" points="513.109,460.132 492.818,421.553 512.329,449.394 				"/>
				<polygon fill="#A7BD5F" points="492.818,421.553 463.303,399.091 519.784,371.669 				"/>
				<polygon fill="#789E54" points="461.53,426.197 463.303,399.091 492.818,421.553 				"/>
				<polygon fill="#B0C469" points="522.49,441.211 492.818,421.553 519.658,407.489 				"/>
				<polygon fill="#BBCD6B" points="513.109,460.132 506.661,468.738 492.818,421.553 				"/>
				<polygon fill="#A7BD5F" points="492.818,421.553 522.49,441.211 512.329,449.394 				"/>
				<polygon fill="#789E54" points="460.706,487.887 461.53,426.197 492.818,421.553 				"/>
				<polygon fill="#CFD765" points="492.818,421.553 519.784,371.669 519.658,407.489 				"/>
				<polygon fill="#83A54D" points="481.91,509.313 460.336,513.472 460.706,487.887 				"/>
				<polygon fill="#779939" points="481.91,509.313 460.706,487.887 478.499,501.77 				"/>
				<polygon fill="#639666" points="484.191,501.291 480.607,475.693 484.256,495.37 				"/>
				<polygon fill="#508634" points="480.607,475.693 501.733,480.504 491.994,481.063 				"/>
				<polygon fill="#70944B" points="480.607,475.693 494.264,493.196 484.256,495.37 				"/>
				<polygon fill="#789E54" points="506.661,468.738 480.607,475.693 492.818,421.553 				"/>
				<polygon fill="#95B56A" points="506.661,468.738 501.733,480.504 480.607,475.693 				"/>
				<polygon fill="#81B148" points="491.994,481.063 496.371,487.467 480.607,475.693 				"/>
				<polygon fill="#739B45" points="480.607,475.693 496.371,487.467 494.264,493.196 				"/>
				<polygon fill="#67944D" points="484.191,501.291 478.499,501.77 480.607,475.693 				"/>
				<polygon fill="#B9C769" points="460.706,487.887 480.607,475.693 478.499,501.77 				"/>
				<polygon fill="#8AAD5A" points="460.706,487.887 492.818,421.553 480.607,475.693 				"/>
				<polygon fill="#DBE381" points="452.377,429.283 461.53,426.197 453.258,502.552 				"/>
				<polygon fill="#7B9852" points="453.258,502.552 461.53,426.197 460.706,487.887 				"/>
				<polygon fill="#779E53" points="460.336,513.472 453.258,502.552 460.706,487.887 				"/>
				<polygon fill="#B0C469" points="477.253,519.44 460.336,513.472 481.91,509.313 				"/>
				<polygon fill="#ADC963" points="288.988,166.789 283.487,178.292 295.569,171.51 				"/>
			</g>
		</g>
	</g>
</g>
</svg>
