<?xml version="1.0" encoding="utf-8"?>
<!-- Generator: Adobe Illustrator 16.0.0, SVG Export Plug-In . SVG Version: 6.00 Build 0)  -->
<!DOCTYPE svg PUBLIC "-//W3C//DTD SVG 1.1//EN" "http://www.w3.org/Graphics/SVG/1.1/DTD/svg11.dtd">
<svg version="1.1" id="Layer_1" xmlns="http://www.w3.org/2000/svg" xmlns:xlink="http://www.w3.org/1999/xlink" x="0px" y="0px"
	 width="173.991px" height="173.991px" viewBox="0 0 173.991 173.991" enable-background="new 0 0 173.991 173.991"
	 xml:space="preserve">
<circle fill="#DB1600" cx="86.996" cy="86.995" r="86.996"/>
<g>
	<defs>
		<rect id="SVGID_1_" x="36.996" y="42.815" width="108.726" height="88.359"/>
	</defs>
	<clipPath id="SVGID_2_">
		<use xlink:href="#SVGID_1_"  overflow="visible"/>
	</clipPath>
	<path clip-path="url(#SVGID_2_)" fill="#FFFFFF" d="M145.722,53.275c-4.001,1.774-8.299,2.974-12.812,3.512
		c4.605-2.76,8.143-7.132,9.808-12.34c-4.31,2.557-9.084,4.412-14.165,5.413c-4.069-4.336-9.866-7.045-16.281-7.045
		c-12.32,0-22.307,9.988-22.307,22.306c0,1.749,0.197,3.45,0.577,5.084c-18.539-0.931-34.975-9.812-45.977-23.307
		c-1.921,3.295-3.021,7.127-3.021,11.214c0,7.739,3.938,14.566,9.924,18.567c-3.656-0.115-7.097-1.12-10.104-2.79
		c-0.002,0.093-0.003,0.187-0.003,0.279c0,10.809,7.689,19.824,17.895,21.874c-1.873,0.509-3.843,0.782-5.877,0.782
		c-1.438,0-2.835-0.141-4.197-0.401c2.839,8.862,11.077,15.313,20.838,15.492c-7.635,5.982-17.253,9.549-27.704,9.549
		c-1.8,0-3.575-0.105-5.32-0.312c9.872,6.328,21.597,10.021,34.194,10.021c41.029,0,63.465-33.99,63.465-63.467
		c0-0.968-0.021-1.929-0.064-2.886C138.949,61.677,142.73,57.749,145.722,53.275"/>
</g>
</svg>
